# xmcd CD database file
#
# Track frame offsets:
#	150
#	2373
#	17517
#	38068
#	58486
#	80536
#	106666
#	119887
#	134650
#	154081
#	174796
#	210224
#	233792
#	253992
#	276433
#
# Disc length: 4007 seconds
#
# Revision: 0
# Processed by: cddbd v1.5.2PL0 Copyright (c) Steve Scherf et al.
# Submitted via: CDex 1.51
#
DISCID=c70fa50f
DTITLE=KEB' MO' - Whittington Park, Greenwood, MS(May 7, 2011) 
DYEAR=2011
DGENRE=Blues
TTITLE0=km2011-05-07d1t01
TTITLE1=All My Love's In Vain
TTITLE2=Rita
TTITLE3=Angolina
TTITLE4=Muddy Water
TTITLE5=Henry
TTITLE6=France
TTITLE7=Tell Everybody I Know
TTITLE8=Kind Hearted Woman Blues
TTITLE9=Government Cheese
TTITLE10=Suitcase
TTITLE11=Shave Yo' Legs
TTITLE12=Lov La Lov
TTITLE13=Whole Nother Thing
TTITLE14=All She Wants To Do Is Dance
EXTD=YEAR: 2011
EXTT0=
EXTT1=
EXTT2=
EXTT3=
EXTT4=
EXTT5=
EXTT6=
EXTT7=
EXTT8=
EXTT9=
EXTT10=
EXTT11=
EXTT12=
EXTT13=
EXTT14=
PLAYORDER=
